<?xml version="1.0" encoding="UTF-8"?><svg id="Layer_2" xmlns="http://www.w3.org/2000/svg" viewBox="0 0 53.77 54.72"><path d="m53.25,20.85c-.13-.59-.43-1.23-.74-1.23-.03,0-.06,0-.07.01l-.3.09c-1.27.37-2.78.22-4.37-.43l-.05-.02-.07.03s0,0,0,0c-.02-.04-.03-.07-.05-.13-.38-.85-.62-1.41-.62-1.41,0,0-.06-.16-.19-.4-.13-.23-.33-.57-.54-.99-.03-.04-.05-.08-.07-.13,0,0,0,0,0-.01h0c.23-.7.51-1.49.93-2.17.41-.68.91-1.24,1.51-1.66.04-.03.08-.06.13-.09.05-.03.09-.06.12-.08.06-.03.1-.08.12-.15.07-.28-.23-.85-.52-1.26l-.62-.74c-.32-.38-.8-.82-1.1-.82-.09,0-.14.04-.17.07-.07.07-.14.15-.23.22-.52.47-1.13.82-1.89,1.07-.65.24-1.39.38-2.25.44h-.06s-.04.06-.04.06c-.03-.03-.07-.07-.09-.09-.27-.27-.52-.48-.72-.65l-.14-.12c-.2-.15-.32-.24-.32-.25,0,0-.12-.1-.33-.27-.05-.04-.1-.08-.16-.13-.2-.16-.44-.36-.75-.53-.05-.04-.1-.07-.14-.1v-.03c-.14-.86-.17-1.65-.1-2.35.09-.85.28-1.53.62-2.14l.06-.08c.05-.07.09-.13.12-.2.02-.04.05-.11.02-.2-.08-.28-.59-.63-1.04-.86l-.87-.44c-.42-.18-.83-.28-1.1-.28s-.35.1-.38.19c-.03.11-.06.2-.11.3-.26.65-.68,1.25-1.24,1.79-.47.45-1.01.86-1.84,1.35l-.04.03-.02.08s0,0,0,0c-.04-.01-.08-.02-.11-.03-.9-.26-1.49-.43-1.5-.43,0,0-.6-.12-1.55-.29-.03,0-.07,0-.11-.01,0,0,0,0,0,0l-.02-.03c-.5-.76-.86-1.37-1.12-2.05-.28-.78-.4-1.5-.37-2.21,0-.04.01-.09.02-.13,0-.07.02-.13.02-.19,0-.05,0-.12-.06-.19-.17-.2-.72-.34-1.3-.34h-.98c-.53.01-1.14.12-1.32.33-.06.07-.06.14-.06.19.02.11.03.21.04.3.07,1.32-.41,2.73-1.41,4.19l-.03.04v.07s-.07,0-.11,0c-.45.06-.8.14-1.06.2h-.06c-.27.07-.42.1-.43.1,0,0-.15.03-.41.1l-.1.02c-.26.06-.61.14-1,.28l-.13.04-.03-.02c-.76-.42-1.41-.89-1.91-1.39-.56-.52-1-1.13-1.28-1.81-.01-.05-.03-.1-.05-.15-.02-.05-.03-.1-.05-.15-.03-.09-.11-.19-.36-.19-.27,0-.68.11-1.11.31,0,0-.22.1-.44.2l-.45.21c-.46.24-.95.61-1.02.89-.02.1,0,.16.03.19l.16.27c.34.61.56,1.31.64,2.1.04.35.04.73.02,1.11-.02.46-.06.83-.11,1.16v.05s.03.06.03.06c-.02.01-.03.02-.05.03l-.07.05c-.21.15-.4.28-.56.39-.14.09-.25.17-.36.25-.22.17-.33.27-.33.27,0,0-.48.39-1.18,1-.04.03-.08.07-.12.11h-.03c-1.82-.09-3.25-.6-4.27-1.53-.07-.06-.15-.14-.21-.21-.07-.07-.28-.1-.58.09-.19.12-.42.34-.69.66l-.6.76c-.38.46-.62.97-.56,1.23.02.1.08.15.12.17.07.04.16.09.26.17,1.08.75,1.88,1.99,2.37,3.68v.05s.09.05.09.05c0,0,0,0,0,0-.02.03-.04.07-.07.12-.43.83-.72,1.38-.73,1.39,0,0-.06.14-.2.38-.05.12-.11.27-.18.44-.07.18-.15.39-.24.61l-.04.09s-.01.03-.02.05h-.02c-1.89.74-3.23.87-4.5.49-.13-.04-.22-.07-.31-.11h-.07c-.32,0-.61.65-.75,1.21,0,0-.07.24-.12.47-.05.24-.1.47-.1.48-.1.51-.13,1.12.05,1.35.06.07.12.09.17.1.08,0,.16.02.24.03h.08c1.27.22,2.43.93,3.76,2.31l.04.04h.06s0,.09-.02.15c-.01.25-.03.47-.04.67-.01.17-.02.32-.03.45.01.28,0,.42,0,.43,0,0,.02.62.04,1.57,0,.04,0,.08.01.12,0,0,0,.01,0,.02l-.02.02c-1.17,1.34-2.49,2.17-3.82,2.39-.12.01-.24.03-.32.05-.17,0-.27.17-.31.51-.01.25.02.59.09.94l.21.95c.14.61.44,1.23.75,1.23h.07c.05-.03.1-.04.15-.06.05-.02.1-.04.16-.05,1.25-.38,2.73-.23,4.37.43l.04.02.07-.02s.04.1.06.13l.62,1.43.18.4c.14.24.33.57.55.98.02.04.05.09.08.14v.03c-.27.85-.57,1.54-.94,2.16-.4.68-.9,1.24-1.48,1.65l-.08.05c-.07.04-.14.08-.21.12-.04.03-.09.08-.11.17-.05.3.25.85.54,1.24l.62.75c.31.38.78.82,1.08.82.09,0,.15-.04.18-.07.07-.08.14-.15.23-.22.49-.45,1.08-.79,1.89-1.09.73-.24,1.49-.38,2.26-.42h.05s.05-.06.05-.06c.03.03.06.06.09.09.27.28.54.5.74.66l.45.36s.12.1.35.28l.04.03c.21.17.5.4.88.65.04.02.08.05.12.07v.03c.15.84.19,1.64.11,2.36-.09.85-.3,1.55-.63,2.13l-.03.04c-.05.08-.1.17-.13.23-.04.05-.06.12-.04.19.06.27.56.63,1.04.87l.88.44c.41.18.82.29,1.09.29s.35-.1.38-.19c.03-.08.07-.2.11-.29.26-.65.67-1.23,1.24-1.8.5-.5,1.09-.9,1.83-1.36l.04-.02.02-.07s.09.03.13.05c.89.24,1.49.42,1.5.42,0,0,.62.11,1.51.27.06.02.12.03.18.04h0c.41.63.82,1.31,1.1,2.08.3.77.42,1.49.37,2.22,0,.1-.02.2-.04.31,0,.05,0,.12.06.19.17.2.69.34,1.31.35h.97c.49-.02,1.12-.12,1.32-.34.06-.07.07-.14.06-.19,0-.05-.01-.11-.02-.16,0-.05-.01-.1-.02-.14-.07-1.31.41-2.72,1.41-4.18l.03-.04v-.08s.01,0,.03,0c.03,0,.07,0,.09,0,.34-.03.63-.1.86-.15.09-.02.18-.04.26-.06.27-.05.41-.09.41-.09,0,0,.16-.04.42-.1.35-.06.72-.16,1.1-.29.04-.01.1-.03.15-.05h.02c.74.42,1.36.87,1.91,1.4.59.58,1.01,1.17,1.28,1.83.04.1.07.2.1.31.03.08.12.18.37.18.27,0,.68-.11,1.09-.3,0,0,.22-.1.44-.21.23-.09.44-.21.45-.21.45-.25.95-.61,1.02-.88.02-.09,0-.16-.03-.2-.05-.07-.09-.13-.13-.21l-.04-.07c-.33-.58-.53-1.26-.63-2.08-.03-.37-.04-.75-.01-1.12,0-.36.04-.75.11-1.15v-.05s-.04-.06-.04-.06c.04-.03.08-.05.11-.07.36-.27.69-.49.92-.65.21-.17.33-.28.33-.28.01-.01.49-.4,1.2-1.01.03-.03.06-.06.1-.1h.03c1.83.1,3.26.61,4.26,1.51.06.05.12.11.17.16l.06.05c.1.13.31.11.58-.08.21-.13.46-.37.69-.66l.6-.74c.38-.46.61-.97.57-1.23-.02-.1-.07-.15-.11-.17l-.28-.18c-1.07-.76-1.89-2.04-2.36-3.71l-.02-.06-.06-.03s.02-.03.04-.05l.04-.06c.41-.83.71-1.36.72-1.38,0,0,.06-.15.19-.39.05-.11.1-.24.15-.38.08-.2.17-.42.28-.68.01-.04.03-.09.05-.13h.03c1.2-.47,2.18-.69,3.09-.69.49,0,.96.06,1.4.19.09.03.18.06.26.09h.04s.06.03.08.03c.4,0,.71-1.09.74-1.2,0,0,.08-.24.13-.49.04-.23.09-.46.09-.46.12-.61.1-1.13-.04-1.34-.06-.08-.12-.11-.19-.11-.11,0-.21-.01-.3-.04-1.29-.21-2.48-.94-3.75-2.29l-.03-.04h-.08s0-.09.02-.14l.02-.28c.02-.34.04-.63.05-.86,0-.27,0-.43,0-.43,0,0,0-.63-.04-1.55,0-.05,0-.1-.01-.16l.02-.02c1.22-1.37,2.52-2.17,3.84-2.39.1-.02.21-.03.31-.04.12,0,.27-.09.3-.52.02-.23-.01-.57-.09-.94l-.21-.94Z" style="fill:#231f20; stroke:#231f20; stroke-miterlimit:10; stroke-width:.42px;"/><path d="m39.11,14.8l3,1.98c.32.21.47.61.36.97l-1.84,6.49c-.15.54-.76.8-1.26.54l-2.6-1.38c-.34-.18-.53-.57-.45-.95l1.43-7.09c.12-.61.83-.9,1.35-.56Z" style="stroke:#fff; stroke-linecap:round; stroke-miterlimit:10; stroke-width:1.27px;"/><path d="m18.07,14.8l-3,1.98c-.32.21-.47.61-.36.97l1.84,6.49c.15.54.76.8,1.26.54l2.6-1.38c.34-.18.53-.57.45-.95l-1.43-7.09c-.12-.61-.83-.9-1.35-.56Z" style="stroke:#fff; stroke-linecap:round; stroke-miterlimit:10; stroke-width:1.27px;"/><path d="m37.59,13.87l-2.62-.77c-.81-.24-1.69.09-2.03.74-.66,1.25-1.94,3.06-3.95,3.19v-.03c-.15.02-.29.03-.43.03-.14,0-.28,0-.43-.03v.03c-2.01-.14-3.3-1.94-3.95-3.19-.34-.65-1.22-.98-2.03-.74l-2.62.77c-.72.21-1.16.81-1.06,1.43l1.14,7.14c.01.09.02.18.01.26l-1.21,14.86c-.06.77.68,1.42,1.61,1.42h17.07c.93,0,1.67-.65,1.61-1.42l-1.21-14.86c0-.09,0-.18.01-.26l1.14-7.14c.1-.62-.34-1.22-1.06-1.43Z" style="stroke:#fff; stroke-linecap:round; stroke-miterlimit:10; stroke-width:1.27px;"/><path d="m16.82,41.7c-3.06,0-5.55-2.49-5.55-5.55,0-1.48.58-2.87,1.63-3.92l3.92-4.09,3.9,4.07c1.07,1.07,1.65,2.47,1.65,3.95,0,3.06-2.49,5.55-5.55,5.55Z" style="stroke:#fff; stroke-linecap:round; stroke-miterlimit:10; stroke-width:1.27px;"/><path d="m14.16,34.92s-.86,3.55,2.66,4.02" style="stroke:#fff; stroke-linecap:round; stroke-miterlimit:10; stroke-width:1.27px;"/></svg>