<?xml version="1.0" encoding="UTF-8"?><svg id="Layer_2" xmlns="http://www.w3.org/2000/svg" viewBox="0 0 53.77 53.77"><path d="m53.55,26.61c0,.1-.06.17-.1.18l-1.05.17c-.21.03-.41.06-.58.09l-.1.02v.14c-.01.4-.01.68-.01.68,0,0-.01.26-.02.66,0,.02,0,.04,0,.07v.1l.1.02c.12.03.25.06.39.09l.17.04c.51.12,1.02.25,1.03.25.03,0,.08.08.06.17l-.23,1.95c-.02.1-.1.16-.13.16l-1.07-.02c-.2,0-.4,0-.59-.01l-.13.02v.13c-.09.4-.15.67-.15.67,0,0-.05.27-.13.64-.02.04-.02.08-.02.1v.08l.23.1c.12.05.25.11.38.16.49.21.97.43.98.43.04.02.08.1.05.18l-.6,1.88c-.03.08-.09.13-.14.13,0,0-.52-.1-1.04-.2-.14-.03-.29-.06-.42-.09l-.25-.06-.05.14c-.16.37-.27.63-.27.63,0,0-.11.25-.27.61,0,.01-.01.02,0,.02l-.11.11.28.18c.11.07.22.14.34.21.44.3.88.6.88.6.03.02.06.11.02.2,0,0-.05.11-.14.29-.06.14-.15.33-.29.58l-.48.86c-.04.08-.11.12-.16.11,0,0-.5-.19-.99-.38-.11-.05-.22-.09-.32-.13l-.32-.13-.4.72s-.17.24-.42.59l-.06.09.08.07c.06.06.12.12.19.18.08.07.16.14.24.22.38.36.77.74.77.74.02.02.03.11-.03.19l-.57.8c-.17.24-.3.4-.41.53-.11.14-.19.24-.19.24-.05.06-.13.1-.19.07l-.92-.54-.56-.35-.06.03s-.05.04-.07.06c-.27.31-.45.52-.45.52,0,0-.18.2-.45.52l-.12.07.09.11c.11.14.23.3.35.46l.63.86s0,.12-.06.18l-1.45,1.35c-.05.05-.17.05-.19.03,0,0-.4-.35-.81-.7l-.18-.16c-.09-.08-.18-.16-.26-.23l-.06-.05-.07.04s-.02.01-.05.04l-.54.42s-.21.16-.56.43l-.11.06.32.63c.24.48.47.96.47.96.02.04,0,.13-.08.18l-1.67,1.05c-.07.04-.17.04-.19,0l-.67-.82c-.07-.09-.14-.18-.21-.26l-.16-.19-.07-.07-.09.04s-.03.01-.05.03c-.36.18-.6.3-.6.3l-.6.3-.13.07.03.09c.05.17.11.37.17.56l.3,1.03s-.03.12-.12.16c0,0-.43.23-.89.39-.46.18-.92.35-.93.35-.07.03-.16.02-.18-.02,0,0-.25-.47-.52-.93l-.12-.22c-.05-.1-.11-.2-.15-.28l-.03-.07h-.07s-.05,0-.06.01l-.1.04c-.16.06-.28.11-.38.14-.1.03-.17.04-.18.05,0,0-.28.08-.69.19l-.1.03v.1c.03.16.05.33.07.51v.09c.07.53.13,1.05.13,1.05,0,.04-.05.11-.14.13l-.95.25-.97.18c-.1.02-.18-.03-.19-.06,0,0-.17-.5-.35-1-.06-.2-.13-.4-.18-.56l-.03-.1-.82.14s-.07.01-.17.03c-.08,0-.18.01-.29.02l-.19.02s-.03,0-.05,0h-.11v.11c-.02.17-.03.38-.04.58l-.07,1.06s-.06.09-.16.1l-.99.07c-.26.03-.52.03-.69.03s-.27,0-.28,0c-.1,0-.17-.06-.17-.1l-.17-1.05c-.02-.12-.04-.23-.05-.34-.01-.08-.02-.16-.04-.24l-.02-.1h-.14c-.41,0-.68-.01-.69-.01,0,0-.27,0-.66-.01,0,0-.01,0-.01,0l-.13-.06-.17.71c-.12.52-.25,1.03-.25,1.03,0,.02-.08.06-.17.07l-1.96-.24c-.09-.02-.15-.09-.15-.13,0,0,0-.54.02-1.07,0-.21.01-.41.01-.59v-.07l-.07-.03s-.08-.02-.07-.02c-.4-.08-.66-.14-.66-.15,0,0-.27-.06-.67-.14l-.04-.02h-.11l-.1.24c-.05.12-.11.25-.16.38-.22.48-.44.97-.44.98-.01.04-.1.07-.18.04l-1.89-.6c-.08-.03-.13-.1-.13-.13,0,0,.1-.52.2-1.04l.12-.57.05-.15h-.18c-.36-.17-.61-.27-.61-.27,0,0-.25-.11-.62-.28l-.13-.07-.06.09c-.05.08-.11.16-.16.25l-.76,1.13s-.12.05-.2.01c0,0-.11-.05-.28-.13-.16-.06-.36-.17-.59-.3-.43-.24-.86-.48-.86-.48-.08-.05-.12-.13-.1-.16,0,0,.19-.5.38-1l.06-.16c.05-.14.11-.27.15-.4l.04-.1-.09-.05c-.37-.2-.62-.34-.62-.34,0,0-.25-.17-.59-.42l-.09-.06-.07.08c-.07.08-.15.16-.23.25l-.17.18c-.36.38-.73.76-.73.76-.05.05-.13.01-.19-.02,0,0-.4-.28-.81-.58-.22-.16-.4-.29-.52-.4-.14-.12-.23-.2-.23-.2-.07-.07-.09-.16-.07-.19,0,0,.27-.45.54-.91.11-.17.22-.35.31-.5l.05-.12-.11-.06-.52-.45s-.21-.17-.51-.45l-.08.09.06-.12-.07-.07-.08.06c-.07.05-.15.11-.24.18-.08.06-.15.12-.23.17-.43.31-.86.62-.86.62-.03.02-.12,0-.17-.06l-1.35-1.44c-.06-.07-.06-.17-.04-.19,0,0,.35-.4.7-.8l.14-.15c.09-.1.18-.2.26-.29l.1-.12-.12-.06h0c-.25-.33-.42-.54-.42-.54,0,0-.17-.22-.41-.53,0-.01-.01-.02-.02-.03l-.05-.12-.26.13c-.12.06-.25.12-.37.19-.48.23-.96.47-.98.48-.04,0-.11-.03-.15-.09l-1.05-1.67c-.05-.08-.03-.17,0-.19l.81-.67.54-.42-.05-.09s-.01-.02-.02-.04c-.19-.36-.31-.61-.31-.61,0,0-.12-.24-.3-.61,0-.01-.01-.02-.02-.03l-.04-.1-.1.03c-.16.05-.36.11-.56.17-.52.14-1.03.3-1.04.3-.04,0-.11-.05-.15-.12,0,0-.23-.44-.39-.89l-.35-.92.95-.71c.18-.1.36-.19.51-.27l.09-.05-.03-.1s-.02-.05-.02-.05l-.09-.25c-.03-.08-.06-.15-.07-.2-.03-.12-.05-.18-.05-.18,0,0-.08-.29-.19-.7l-.03-.1h-.11c-.14.03-.29.05-.45.07l-1.19.12s-.1-.05-.13-.14l-.25-.94c-.08-.49-.18-.97-.18-.97-.02-.09.03-.17.06-.19l1-.35.21-.07c.13-.04.25-.08.36-.12l.1-.04-.02-.1c-.08-.42-.13-.71-.13-.71,0,0-.01-.07-.03-.17,0-.08-.02-.18-.03-.3l-.02-.19s0-.04,0-.04v-.11h-.11c-.1-.01-.2-.02-.31-.02-.09,0-.18,0-.27-.01l-1.07-.07s-.09-.07-.1-.17c0,0-.04-.49-.08-.98-.05-.48-.02-.96-.02-.97,0-.1.06-.17.1-.18l1.19-.19c.15-.02.3-.04.44-.06h.11v-.17c0-.41.01-.68.01-.68,0,0,0-.28.02-.69v-.14s-.09-.02-.09-.02c-.17-.04-.37-.09-.57-.13-.51-.13-1.02-.25-1.03-.25-.04-.01-.09-.09-.08-.18l.24-1.95c.02-.09.09-.15.13-.15h1.07s.68.03.68.03l.04-.14c.08-.4.14-.67.15-.67,0,0,.05-.26.15-.69v-.12s-.06-.03-.06-.03c-.13-.06-.28-.12-.44-.19l-1.09-.48s-.07-.1-.05-.19l.61-1.88c.02-.08.09-.14.14-.13,0,0,.51.1,1.04.2.11.02.21.04.31.06.09.02.18.04.26.05l.1.02.04-.09s.02-.03.02-.06c.16-.36.26-.6.26-.61,0,0,.11-.25.27-.63l-.11-.05h.13s.04-.08.04-.08l-1.46-.98s-.06-.11-.02-.2c0,0,.05-.11.13-.28.06-.15.16-.35.3-.59l.48-.86c.04-.07.1-.11.17-.1l.99.37c.11.04.22.09.32.13.08.03.16.06.23.09l.1.04.4-.71.48-.68-.08-.07c-.13-.12-.28-.27-.43-.41-.38-.37-.77-.73-.77-.73-.03-.03-.03-.12.03-.19,0,0,.28-.4.57-.8.14-.21.29-.4.4-.53.12-.14.2-.23.21-.23.06-.07.16-.09.18-.08,0,0,.46.27.92.55.15.1.3.19.44.27l.15.08.07-.07s.02-.02.03-.04c.27-.3.44-.5.44-.5l.45-.51s.04-.03.05-.06l.03-.06-.04-.06c-.09-.12-.19-.26-.29-.4l-.06-.07c-.31-.42-.62-.85-.62-.85-.02-.03,0-.12.06-.18l1.45-1.35c.05-.05.18-.05.19-.04,0,0,.4.35.8.7.08.07.16.14.23.21.07.06.14.13.21.18l.11.05.08-.08c.32-.25.54-.41.54-.41,0,0,.22-.17.56-.43.01,0,.03-.02.04-.03l.06-.06-.04-.08c-.04-.08-.08-.16-.13-.25-.05-.09-.09-.18-.14-.27-.24-.48-.47-.96-.47-.96-.02-.03.01-.13.08-.18l1.68-1.05c.07-.04.17-.04.19-.01l.66.82c.13.16.25.32.36.46l.08.12.1-.1h.02c.36-.2.6-.32.6-.32,0,0,.24-.12.6-.3.02,0,.04-.02.06-.02l.09-.05-.03-.1c-.05-.17-.11-.36-.17-.56-.15-.51-.3-1.02-.3-1.02-.01-.04.03-.12.12-.17,0,0,.43-.23.89-.39.46-.17.92-.35.92-.35.08-.03.18,0,.2.02,0,0,.25.47.51.92.1.18.19.36.28.52l.08.14.1-.1s0,0,.01,0c.11-.04.21-.08.3-.11l1.13-.33v-.1c-.03-.17-.05-.38-.08-.58l-.11-1.07s.05-.1.14-.13l.95-.25c.48-.09.97-.17.97-.17.09-.02.18.03.19.05,0,0,.17.51.34,1.01l.05.15c.05.15.1.28.14.41l.03.1.11-.02c.42-.08.7-.13.7-.13,0,0,.08,0,.18-.02h.13c.1-.02.22-.04.35-.05h.16v-.11c.02-.18.03-.38.04-.59.04-.53.07-1.06.07-1.06,0-.04.07-.1.17-.1l.99-.07c.25-.02.5-.03.67-.03.18,0,.3,0,.3,0,.09,0,.17.05.17.09l.17,1.05c.03.14.04.29.06.42l.04.26h.15c.41.01.68.01.68.01,0,0,.28.01.69.02h.14l.02-.09c.04-.17.09-.37.13-.57l.25-1.03s.07-.08.18-.06l1.95.23c.1.02.16.09.16.13,0,0,0,.53-.02,1.06,0,.21-.01.42-.02.59l-.02.12h.13l.05-.11-.02.12c.4.09.67.14.67.14,0,0,.27.05.7.15l.11.04.04-.11c.04-.09.08-.19.12-.29.04-.08.07-.16.11-.25.21-.49.43-.97.43-.97.02-.04.12-.08.19-.06l1.88.6c.09.03.14.1.13.14l-.19,1.04c-.03.14-.06.28-.09.41l-.05.23.05.05s.06.04.08.04c.38.16.63.27.63.27,0,0,.24.11.61.26.02.01.03.02.05.03l.1.05.06-.09c.1-.15.21-.32.32-.49.3-.44.59-.88.59-.89.02-.03.11-.05.2,0,0,0,.11.05.29.13.17.07.39.18.59.3.43.24.86.48.86.48.09.05.12.13.11.16,0,0-.19.49-.38.99-.07.19-.15.38-.22.54l-.04.1.71.41s.24.17.6.41l.09.06.07-.07c.05-.06.12-.12.18-.19.07-.08.15-.16.22-.23l.74-.77s.12-.02.19.03c0,0,.4.29.83.58.18.13.38.27.5.39l.23.2c.07.06.1.15.08.18l-.54.92-.04.07c-.1.15-.19.31-.27.44l-.05.12.11.06c.31.27.51.45.51.45,0,0,.2.18.51.44l.06.14.25-.19c.11-.08.22-.17.34-.25.42-.31.85-.62.85-.63.03-.02.13,0,.19.06l1.35,1.45c.06.06.06.15.03.18,0,0-.35.4-.71.82-.14.15-.27.29-.38.42l-.05.06.03.07s.04.05.04.06c.25.33.41.54.41.55,0,0,.17.22.41.52,0,.02.02.04.04.07l.06.06.08-.04c.14-.07.29-.15.45-.23l.07-.03c.48-.24.97-.48.99-.48.04,0,.11.03.15.09l1.05,1.67c.05.08.04.17.01.19,0,0-.41.34-.82.67-.14.12-.28.23-.41.33l-.12.09.04.09s.01.02.03.04c.19.37.31.61.31.61l.3.61s.02.04.03.06l.05.08.09-.03c.16-.05.35-.11.55-.17.51-.15,1.03-.3,1.04-.3.04,0,.11.05.15.12,0,0,.23.43.39.89l.35.92c.03.09,0,.17-.02.19,0,0-.47.26-.92.52l-.08.04c-.16.08-.31.17-.44.24l-.11.05.08.15c.06.18.12.34.16.44l.27.98h.1c.18-.03.38-.05.58-.08l1.07-.12s.1.06.13.14c0,0,.12.48.25.94l.17.97c.02.1-.03.18-.05.19,0,0-.51.17-1.01.35-.09.03-.18.06-.27.09-.1.03-.19.07-.28.09l-.1.03.02.11c.08.43.13.71.13.71,0,0,.01.07.02.19.01.11.03.28.05.47v.16h.11c.18.02.38.03.59.04.53.03,1.06.07,1.06.07.04,0,.09.07.1.16l.07.99c.05.48.03.96.03.97Z" style="fill:#231f20; stroke:#231f20; stroke-miterlimit:10; stroke-width:.42px;"/><path d="m24.08,20.38h5.91c.41,0,.65.45.42.79l-2.96,4.4c-.2.3-.64.3-.84,0l-2.96-4.4c-.23-.34.02-.79.42-.79Z" style="stroke:#fff; stroke-linecap:round; stroke-miterlimit:10; stroke-width:1.27px;"/><line x1="27.03" y1="25.57" x2="27.03" y2="37.97" style="stroke:#fff; stroke-linecap:round; stroke-miterlimit:10; stroke-width:1.27px;"/><line x1="28.88" y1="37.55" x2="34.44" y2="29.85" style="stroke:#fff; stroke-linecap:round; stroke-miterlimit:10; stroke-width:1.27px;"/><line x1="25.29" y1="37.55" x2="19.73" y2="29.85" style="stroke:#fff; stroke-linecap:round; stroke-miterlimit:10; stroke-width:1.27px;"/><line x1="29.41" y1="39.56" x2="38.91" y2="39.56" style="stroke:#fff; stroke-linecap:round; stroke-miterlimit:10; stroke-width:1.27px;"/><line x1="14.98" y1="39.56" x2="24.48" y2="39.56" style="stroke:#fff; stroke-linecap:round; stroke-miterlimit:10; stroke-width:1.27px;"/><path d="m25.43,12.28h3.27c.61,0,1.1.49,1.1,1.1v7h-5.47v-7c0-.61.49-1.1,1.1-1.1Z" style="stroke:#fff; stroke-linecap:round; stroke-miterlimit:10; stroke-width:1.27px;"/><circle cx="27.04" cy="39.24" r="2.28" style="stroke:#fff; stroke-linecap:round; stroke-miterlimit:10; stroke-width:1.27px;"/></svg>