<?xml version="1.0" encoding="UTF-8"?><svg id="Layer_1" xmlns="http://www.w3.org/2000/svg" viewBox="0 0 400 400"><path d="m398.4,198c0,.8-.5,1.3-.7,1.3l-7.8,1.3c-1.5.2-3,.4-4.4.7l-.8.1v1.1c-.1,3-.1,5.1-.1,5.1,0,0-.1,2-.1,4.9v1.2l.7.2c.9.2,1.9.4,2.9.7l1.3.3c3.8.9,7.6,1.9,7.6,1.9.2.1.6.6.5,1.3l-1.7,14.5c-.2.7-.7,1.2-1,1.2l-7.9-.2c-1.5,0-3-.1-4.4-.1l-1,.1v.9c-.7,3-1.1,5-1.1,5,0,0-.4,2-1,4.7-.1.3-.1.6-.1.8v.6l1.7.7c.9.4,1.9.8,2.9,1.2,3.6,1.6,7.2,3.2,7.2,3.2.3.1.6.8.4,1.4l-4.5,14c-.2.6-.7,1-1,1,0,0-3.9-.8-7.8-1.5-1.1-.2-2.1-.4-3.1-.7l-1.9-.4-.4,1.1c-1.2,2.8-2,4.7-2,4.7,0,0-.9,1.9-2,4.6-.1.1-.1.2,0,.1l-.3,1.1,1.7,1.1c.8.5,1.7,1.1,2.5,1.6,3.3,2.2,6.6,4.5,6.6,4.5.2.2.4.8.1,1.5,0,0-.4.9-1,2.2-.4,1-1.1,2.5-2.2,4.3l-3.6,6.4c-.3.6-.8.9-1.2.8,0,0-3.7-1.4-7.4-2.8-.8-.3-1.6-.7-2.4-1l-2.4-1-3,5.3s-1.3,1.8-3.1,4.4l-.4.6.6.5c.4.4.9.9,1.4,1.3.6.5,1.2,1.1,1.8,1.6,2.8,2.7,5.7,5.5,5.7,5.5.2.2.2.8-.2,1.4l-4.2,5.9c-1.2,1.8-2.2,3-3.1,3.9-.8,1-1.5,1.8-1.5,1.8-.4.4-1,.8-1.4.5l-6.8-4-4.1-2.6-.5.2c-.2.1-.4.3-.5.4-2,2.3-3.3,3.8-3.3,3.8,0,0-1.4,1.5-3.4,3.8l-.9.5.6.8c.8,1,1.7,2.2,2.6,3.4l4.7,6.4c.1.2.1.9-.4,1.3l-10.8,10.5c-.4.4-1.3.4-1.4.2l-6-5.2-1.3-1.2c-.7-.6-1.3-1.2-1.9-1.7l-.5-.4-.5.3c-.1,0-.2.1-.4.3l-4,3.1s-1.6,1.2-4.1,3.2l-.8.4,2.4,4.7c1.8,3.5,3.5,7.1,3.5,7.1.1.3-.1.9-.6,1.4l-12.4,7.8c-.5.3-1.2.3-1.4.1l-5-6.1c-.5-.7-1-1.3-1.5-1.9l-1.2-1.5-.5-.5-.6.3c-.1,0-.2.1-.4.2-2.6,1.3-4.4,2.2-4.5,2.2l-4.5,2.2-1,.5.2.7c.4,1.3.8,2.7,1.3,4.1l2.2,7.6c.1.3-.2.9-.9,1.2,0,0-3.2,1.7-6.6,2.9-3.5,1.4-6.9,2.6-6.9,2.6-.5.2-1.2.1-1.4-.1,0,0-1.9-3.5-3.9-6.9l-.9-1.7c-.4-.7-.8-1.5-1.1-2.1l-.2-.5h-.5c-.2,0-.3,0-.5.1l-.8.3c-1.2.4-2.1.8-2.8,1-.8.2-1.2.3-1.3.4,0,0-2.1.6-5.1,1.4l-.8.2.1.8c.1,1.2.3,2.4.4,3.8l.1.7c.4,3.9.9,7.8.9,7.8,0,.3-.4.8-1,1l-7,1.9-7.2,1.4c-.7.1-1.3-.2-1.4-.5,0,0-1.3-3.8-2.6-7.5-.4-1.5-.9-2.9-1.4-4.2l-.2-.7-6.1,1s-.6.1-1.3.2c-.6,0-1.3.1-2.2.2l-1.4.1h-1.3l-.1.9c-.1,1.3-.2,2.8-.2,4.3l-.6,7.9c0,.3-.5.7-1.2.8l-7.4.5c-1.9.2-3.9.3-5.1.3h-2.1c-.7,0-1.2-.5-1.3-.7l-1.3-7.9c-.2-.9-.3-1.7-.4-2.6-.1-.6-.2-1.2-.3-1.8l-.1-.8h-1.1c-3.1,0-5.1-.1-5.1-.1,0,0-2,0-4.9-.1h-.1l-1-.4-1.3,5.3c-.9,3.9-1.8,7.7-1.9,7.7,0,.2-.6.5-1.3.5l-14.6-1.8c-.7-.1-1.1-.6-1.1-.9,0,0,0-4,.1-8,.1-1.5.1-3.1.1-4.4v-.3l-.5-.2c-.3-.1-.6-.1-.5-.1-3-.6-4.9-1.1-4.9-1.1,0,0-2-.5-5-1.1l-.3-.1h-.8l-.7,1.8c-.4.9-.8,1.9-1.2,2.8-1.6,3.6-3.2,7.2-3.3,7.3-.1.3-.7.5-1.4.3l-14-4.5c-.6-.2-1-.8-1-1,0,0,.8-3.9,1.5-7.7l.9-4.3.4-1.1h-1.1l-.2-.1c-2.7-1.2-4.5-1.9-4.5-1.9,0,0-1.8-.8-4.6-2.1l-1-.5-.4.7c-.4.6-.8,1.2-1.2,1.8l-5.6,8.4c-.1.2-.9.4-1.5.1,0,0-.8-.4-2.1-1-1.2-.5-2.7-1.3-4.4-2.2-3.2-1.8-6.4-3.5-6.4-3.5-.6-.4-.9-1-.8-1.2,0,0,1.4-3.7,2.8-7.4l.5-1.2c.4-1,.8-2,1.1-2.9l.3-.7-.7-.4c-2.7-1.5-4.6-2.6-4.6-2.6-.1,0-1.8-1.3-4.4-3.1l-.7-.5-.6.6c-.5.6-1.1,1.2-1.7,1.9l-1.2,1.4c-2.7,2.8-5.4,5.7-5.5,5.7-.3.4-1,.1-1.4-.2,0,0-3-2.1-6-4.3-1.7-1.2-3-2.2-3.9-3-1-.9-1.7-1.5-1.8-1.5-.6-.5-.7-1.2-.5-1.4l4-6.8c.8-1.3,1.6-2.6,2.3-3.7l.4-.9-.8-.5-3.8-3.4s-1.5-1.3-3.8-3.3l-.6.6.4-.9-.6-.5-.6.5c-.6.4-1.1.9-1.8,1.3-.6.4-1.1.9-1.7,1.3-3.2,2.3-6.4,4.6-6.4,4.6-.2.2-.9,0-1.3-.4l-10-10.7c-.5-.5-.5-1.2-.3-1.5,0,0,2.6-3,5.2-6l1-1.1c.7-.8,1.3-1.5,1.9-2.2l.8-.9-.9-.4-.1-.1c-1.8-2.4-3.1-4-3.1-4,0,0-1.2-1.6-3-3.9,0-.1-.1-.2-.2-.2l-.4-.9-2,1c-.9.5-1.9.9-2.8,1.4-3.6,1.7-7.2,3.5-7.3,3.5-.3,0-.8-.2-1.1-.6l-7.8-12.5c-.4-.6-.3-1.2-.1-1.4l6.1-5,4-3.2-.3-.7c0-.1-.1-.2-.2-.3-1.4-2.7-2.3-4.5-2.3-4.5,0,0-.9-1.8-2.2-4.5,0-.1-.1-.2-.2-.2l-.3-.7-.8.2c-1.2.4-2.7.8-4.1,1.3-3.8,1.1-7.7,2.2-7.7,2.2-.3,0-.9-.4-1.1-.9,0,0-1.7-3.3-2.9-6.6l-2.6-6.9,7.1-5.3c1.4-.7,2.7-1.4,3.8-2l.7-.4-.2-.7c-.1-.2-.1-.4-.1-.4l-.7-1.9c-.2-.6-.4-1.1-.5-1.5-.2-.9-.4-1.4-.4-1.4,0,0-.6-2.1-1.4-5.2l-.2-.8-.8.1c-1,.1-2.2.3-3.4.4l-8.9.9c-.3,0-.8-.4-1-1.1l-1.9-7c-.6-3.6-1.3-7.2-1.3-7.2-.1-.7.2-1.3.4-1.4l7.5-2.6,1.6-.5c.9-.3,1.8-.6,2.7-.9l.7-.3-.1-.8c-.6-3.1-.9-5.3-.9-5.3,0,0-.1-.5-.2-1.3-.1-.6-.1-1.3-.2-2.2l-.1-1.4v-1.2l-.8-.1c-.7-.1-1.5-.1-2.3-.1-.7,0-1.4-.1-2-.1l-7.9-.5c-.2,0-.7-.5-.7-1.2,0,0-.3-3.6-.6-7.3-.4-3.6-.2-7.2-.2-7.2,0-.7.4-1.3.7-1.3l8.9-1.4c1.1-.2,2.3-.3,3.3-.5l.8-.1v-1.1c.1-3.1.1-5,.1-5,0,0,.1-2.1.1-5.1v-1.1l-.7-.2c-1.3-.3-2.8-.6-4.2-.9-3.8-1-7.6-1.9-7.6-1.9-.3-.1-.6-.7-.6-1.4l1.8-14.5c.1-.7.6-1.1.9-1.1l7.9.1,5.1.2.3-1.1c.6-3,1.1-5,1.1-5,0,0,.4-2,1.1-5.1v-.9l-.5-.2c-1-.4-2.1-.9-3.2-1.4l-8.1-3.6c-.2-.1-.6-.7-.4-1.4l4.5-14c.2-.6.7-1,1-.9,0,0,3.8.7,7.7,1.5.8.2,1.6.3,2.3.5.7.1,1.3.3,1.9.4l.7.1.3-.6c0-.1.1-.2.1-.5,1.2-2.7,2-4.5,2-4.5,0,0,.8-1.9,2-4.7l.1-.2h0l.3-.7-10.9-7.3c-.2-.2-.4-.8-.1-1.5,0,0,.4-.8,1-2.1.5-1.1,1.2-2.6,2.2-4.4l3.5-6.4c.3-.5.7-.8,1.2-.8l7.4,2.8c.8.3,1.6.6,2.4.9.6.2,1.2.5,1.7.7l.7.3,3-5.3,3.5-5-.6-.5c-1-.9-2.1-2-3.2-3-2.8-2.7-5.7-5.4-5.7-5.4-.2-.2-.2-.9.2-1.4,0,0,2.1-3,4.2-6,1.1-1.6,2.2-3,3-3.9.9-1,1.5-1.7,1.5-1.7.5-.6,1.2-.7,1.4-.6,0,0,3.4,2,6.8,4.1,1.1.7,2.2,1.4,3.3,2l1.1.6.5-.5c.1-.1.2-.2.3-.3,2-2.2,3.3-3.7,3.3-3.7l3.3-3.8c.1-.1.3-.2.4-.5l.2-.5-.3-.4c-.7-.9-1.4-1.9-2.2-3l-.4-.6c-2.3-3.2-4.6-6.3-4.6-6.3-.2-.2-.1-.9.4-1.4l10.8-10.1c.4-.4,1.3-.3,1.4-.3,0,0,3,2.6,6,5.2.6.5,1.2,1,1.8,1.6.5.5,1.1.9,1.5,1.4l.8.4.6-.6c2.4-1.8,4-3,4-3.1,0,0,1.6-1.2,4.1-3.2.1-.1.2-.2.3-.2l.5-.5-.3-.6c-.3-.6-.6-1.2-.9-1.9s-.7-1.3-1-2c-1.8-3.6-3.5-7.2-3.5-7.2-.1-.3.1-.9.6-1.3l12.5-7.8c.5-.3,1.2-.3,1.4-.1l4.9,6.1c.9,1.2,1.9,2.4,2.7,3.4l.6.9.7-.8.2-.1c2.7-1.4,4.4-2.3,4.4-2.3l4.4-2.2c.2,0,.3-.1.4-.2l.7-.3-.2-.7c-.4-1.2-.8-2.7-1.2-4.2-1.1-3.8-2.2-7.6-2.2-7.6-.1-.3.2-.9.9-1.2,0,0,3.2-1.7,6.6-2.9l6.8-2.6c.6-.2,1.4,0,1.5.2,0,0,1.9,3.5,3.8,6.9.7,1.4,1.4,2.7,2.1,3.9l.6,1.1.8-.8h.1c.8-.3,1.6-.6,2.2-.8l8.4-2.5-.1-.8c-.1-1.3-.3-2.8-.5-4.3l-.8-7.9c0-.2.4-.8,1-1l7-1.9c3.6-.7,7.2-1.3,7.2-1.3.7-.1,1.3.2,1.4.4,0,0,1.3,3.8,2.6,7.5l.4,1.1c.4,1.1.7,2.1,1,3.1l.2.8.8-.1c3.1-.6,5.2-1,5.2-1,0,0,.6,0,1.4-.2l1-.1c.8-.1,1.7-.2,2.6-.3h1.2l.1-.8c.1-1.3.2-2.9.2-4.4.3-3.9.5-7.9.5-7.9,0-.3.5-.7,1.2-.8l7.4-.5c1.9-.2,3.7-.2,5-.2h2.3c.7,0,1.2.4,1.3.7l1.3,7.8c.2,1.1.3,2.1.5,3.1l.3,2h1.1c3.1.1,5.1.1,5.1.1,0,0,2.1.1,5.1.2h1l.2-.7c.3-1.3.7-2.7,1-4.2l1.9-7.7c.1-.2.5-.6,1.3-.5l14.5,1.7c.7.2,1.2.7,1.2,1,0,0-.1,3.9-.1,7.9,0,1.5-.1,3.1-.1,4.4l-.1.9h.9l.2.1h0c3,.6,5,1,5,1,0,0,2,.4,5.2,1.1l.8.3.3-.8c.3-.7.6-1.4.9-2.1.3-.6.5-1.2.8-1.8,1.6-3.7,3.2-7.2,3.2-7.2.1-.3.9-.6,1.4-.4l14,4.5c.7.2,1,.8,1,1l-1.4,7.7c-.2,1.1-.5,2.1-.6,3l-.4,1.7.4.4c.2.2.5.3.6.3,2.8,1.2,4.7,2,4.7,2,0,0,1.8.8,4.5,1.9.1.1.2.1.3.2l.7.4.5-.7c.7-1.1,1.6-2.4,2.4-3.7,2.3-3.2,4.4-6.6,4.4-6.6.1-.2.8-.4,1.5-.1,0,0,.8.4,2.1,1,1.3.5,2.9,1.3,4.4,2.2,3.2,1.8,6.4,3.6,6.4,3.6.6.4.9,1,.8,1.2l-2.8,7.4c-.5,1.4-1.1,2.8-1.6,4l-.3.7,5.3,3.1s1.8,1.3,4.5,3.1l.6.4.5-.5c.4-.4.9-.9,1.3-1.4.5-.6,1.1-1.2,1.6-1.7l5.5-5.8c.1-.1.9-.2,1.4.2,0,0,3,2.2,6.1,4.3,1.4,1,2.8,2,3.7,2.9l1.7,1.5c.5.5.7,1.1.6,1.4l-4,6.8-.3.5c-.7,1.2-1.4,2.3-2,3.3l-.4.9.8.5c2.3,2,3.8,3.3,3.8,3.3,0,0,1.5,1.4,3.8,3.3l.5,1,1.9-1.4c.8-.6,1.6-1.2,2.5-1.9,3.1-2.3,6.3-4.7,6.3-4.7.3-.2,1,0,1.4.5l10,10.8c.4.4.4,1.1.2,1.4,0,0-2.6,3-5.3,6.1-1,1.1-2,2.2-2.8,3.2l-.4.4.2.5c.1.2.3.4.3.4,1.8,2.4,3,4,3.1,4.1,0,0,1.3,1.6,3.1,3.9,0,.1.1.3.3.5l.5.5.6-.3c1-.6,2.2-1.1,3.3-1.7l.5-.3c3.6-1.8,7.2-3.5,7.4-3.6.3,0,.8.2,1.1.6l7.8,12.4c.4.6.3,1.3.1,1.4,0,0-3.1,2.5-6.1,4.9-1,.9-2.1,1.7-3,2.4l-.9.7.3.7c0,.1.1.2.2.3,1.4,2.7,2.3,4.5,2.3,4.5l2.3,4.5c.1.1.1.3.2.4l.4.6.6-.2c1.2-.4,2.6-.8,4.1-1.3,3.8-1.1,7.6-2.2,7.7-2.2.3,0,.8.3,1.1.9,0,0,1.7,3.2,2.9,6.6l2.6,6.8c.2.7.1,1.3-.2,1.4,0,0-3.5,1.9-6.9,3.9l-.6.3c-1.2.6-2.3,1.2-3.3,1.8l-.8.4.6,1.1c.5,1.4.9,2.5,1.2,3.3l2,7.3.8-.1c1.3-.1,2.8-.3,4.3-.5l7.9-.9c.3,0,.8.4,1,1.1,0,0,.9,3.6,1.9,7l1.3,7.2c.1.7-.2,1.3-.4,1.4,0,0-3.8,1.3-7.5,2.6-.7.2-1.4.4-2,.7-.7.2-1.5.5-2.1.7l-.8.2.1.8c.6,3.2.9,5.3.9,5.3,0,0,.1.5.2,1.4s.2,2.1.4,3.5v1.2l.9.1c1.4.1,2.8.2,4.4.3,4,.2,7.9.5,7.9.5.3,0,.7.5.8,1.2l.5,7.4c.4,3.5.2,7.2.2,7.2l-.4.2Z" style="fill:#231f20;"/><path d="m114.81,192.86h-21.83c-8.36,0-14.36-1.74-18.02-5.23-3.66-3.49-5.49-8.89-5.49-16.21v-45.35c0-1.64.37-2.82,1.1-3.55.73-.73,1.92-1.1,3.55-1.1h20.03c1.64,0,2.82.37,3.55,1.1.73.73,1.1,1.92,1.1,3.55v35.4c0,1.38.37,2.46,1.1,3.23.73.78,1.7,1.16,2.91,1.16h12.02v-39.79c0-1.64.37-2.82,1.1-3.55.73-.73,1.92-1.1,3.55-1.1h19.9c1.63,0,2.82.37,3.55,1.1.73.73,1.1,1.92,1.1,3.55v83.72c0,1.64-.37,2.82-1.1,3.55-.73.73-1.92,1.1-3.55,1.1h-19.9c-1.64,0-2.82-.37-3.55-1.1-.73-.73-1.1-1.92-1.1-3.55v-16.93Z" style="fill:#fff;"/><path d="m239.36,190.02c0,3.96-.56,7.56-1.68,10.79-1.12,3.23-3.15,5.99-6.07,8.27-2.93,2.28-6.96,4.07-12.08,5.36s-11.65,1.94-19.57,1.94-14.45-.65-19.57-1.94c-5.13-1.29-9.15-3.08-12.08-5.36-2.93-2.28-4.97-5.04-6.14-8.27-1.16-3.23-1.74-6.83-1.74-10.79v-44.06c0-3.96.58-7.56,1.74-10.79,1.16-3.23,3.21-6.01,6.14-8.33,2.93-2.33,6.96-4.13,12.08-5.43,5.12-1.29,11.65-1.94,19.57-1.94s14.45.65,19.57,1.94,9.15,3.1,12.08,5.43c2.93,2.33,4.95,5.1,6.07,8.33,1.12,3.23,1.68,6.83,1.68,10.79v44.06Zm-49.74-4.65c0,1.72.62,3.17,1.87,4.33,1.25,1.16,4.07,1.74,8.46,1.74s7.21-.58,8.46-1.74c1.25-1.16,1.88-2.6,1.88-4.33v-34.76c0-1.64-.63-3.04-1.88-4.2-1.25-1.16-4.07-1.74-8.46-1.74s-7.22.58-8.46,1.74c-1.25,1.16-1.87,2.56-1.87,4.2v34.76Z" style="fill:#fff;"/><path d="m300.34,192.86h-21.84c-8.36,0-14.36-1.74-18.02-5.23-3.66-3.49-5.49-8.89-5.49-16.21v-45.35c0-1.64.37-2.82,1.1-3.55.73-.73,1.92-1.1,3.55-1.1h20.03c1.64,0,2.82.37,3.55,1.1.73.73,1.1,1.92,1.1,3.55v35.4c0,1.38.37,2.46,1.1,3.23.73.78,1.7,1.16,2.91,1.16h12.02v-39.79c0-1.64.37-2.82,1.1-3.55.73-.73,1.92-1.1,3.55-1.1h19.9c1.64,0,2.82.37,3.55,1.1.73.73,1.1,1.92,1.1,3.55v83.72c0,1.64-.37,2.82-1.1,3.55s-1.92,1.1-3.55,1.1h-19.9c-1.64,0-2.82-.37-3.55-1.1-.73-.73-1.1-1.92-1.1-3.55v-16.93Z" style="fill:#fff;"/><path d="m94.66,256.2h-3.11c-.24,0-.42-.05-.53-.16-.11-.11-.16-.29-.16-.53v-9.43h-2.82c-.24,0-.42-.05-.53-.16-.11-.11-.16-.29-.16-.53v-2.32c0-.24.05-.42.16-.53.11-.11.28-.16.53-.16h10.14c.24,0,.42.05.53.16.11.11.16.29.16.53v2.32c0,.24-.05.42-.16.53-.11.11-.29.16-.53.16h-2.82v9.43c0,.24-.05.42-.16.53-.11.11-.29.16-.53.16Z" style="fill:#fff;"/><path d="m104.4,256.2h-2.98c-.24,0-.42-.05-.53-.16s-.16-.29-.16-.53v-12.44c0-.24.05-.42.16-.53.11-.11.28-.16.53-.16h2.98c.24,0,.42.05.53.16.11.11.16.29.16.53v4.17h3.21v-4.17c0-.24.05-.42.16-.53.11-.11.28-.16.53-.16h2.98c.24,0,.42.05.53.16.11.11.16.29.16.53v12.44c0,.24-.05.42-.16.53-.11.11-.29.16-.53.16h-2.98c-.24,0-.42-.05-.53-.16-.11-.11-.16-.29-.16-.53v-4.26h-3.21v4.26c0,.24-.05.42-.16.53-.11.11-.29.16-.53.16Z" style="fill:#fff;"/><path d="m115.69,256.2c-.24,0-.42-.05-.53-.16s-.16-.29-.16-.53v-2.28c0-.24.05-.42.16-.53s.28-.16.53-.16h1.9v-6.45h-1.9c-.24,0-.42-.05-.53-.16-.11-.11-.16-.29-.16-.53v-2.32c0-.24.05-.42.16-.53.11-.11.28-.16.53-.16h8.18c.24,0,.42.05.53.16.11.11.16.29.16.53v2.32c0,.24-.05.42-.16.53-.11.11-.29.16-.53.16h-1.86v6.45h1.86c.24,0,.42.05.53.16.11.11.16.29.16.53v2.28c0,.24-.05.42-.16.53-.11.11-.29.16-.53.16h-8.18Z" style="fill:#fff;"/><path d="m133.33,256.2h-6.07c-.24,0-.42-.05-.53-.16-.11-.11-.16-.29-.16-.53v-2.25c0-.24.05-.42.16-.53.11-.11.28-.16.53-.16h5.16c.17,0,.29-.05.37-.16.08-.11.12-.24.12-.39,0-.22-.04-.38-.12-.48-.08-.1-.21-.16-.37-.17l-2.88-.4c-.9-.13-1.62-.42-2.16-.88-.54-.46-.82-1.23-.82-2.3v-2.02c0-1.09.35-1.92,1.06-2.51.7-.58,1.68-.87,2.92-.87h5.38c.24,0,.42.05.53.16.11.11.16.29.16.53v2.29c0,.24-.05.42-.16.53-.11.11-.28.16-.53.16h-4.47c-.17,0-.29.05-.38.16-.09.11-.13.25-.13.41s.04.31.13.42c.09.12.22.18.38.19l2.86.38c.9.13,1.62.42,2.17.88s.83,1.23.83,2.3v2.02c0,1.09-.35,1.92-1.07,2.5-.71.58-1.68.87-2.91.87Z" style="fill:#fff;"/><path d="m144.1,256.2c-.24,0-.42-.05-.53-.16s-.16-.29-.16-.53v-2.28c0-.24.05-.42.16-.53s.28-.16.53-.16h1.9v-6.45h-1.9c-.24,0-.42-.05-.53-.16-.11-.11-.16-.29-.16-.53v-2.32c0-.24.05-.42.16-.53.11-.11.28-.16.53-.16h8.18c.24,0,.42.05.53.16.11.11.16.29.16.53v2.32c0,.24-.05.42-.16.53-.11.11-.29.16-.53.16h-1.86v6.45h1.86c.24,0,.42.05.53.16.11.11.16.29.16.53v2.28c0,.24-.05.42-.16.53-.11.11-.29.16-.53.16h-8.18Z" style="fill:#fff;"/><path d="m161.75,256.2h-6.07c-.24,0-.42-.05-.53-.16-.11-.11-.16-.29-.16-.53v-2.25c0-.24.05-.42.16-.53.11-.11.28-.16.53-.16h5.16c.17,0,.29-.05.37-.16.08-.11.12-.24.12-.39,0-.22-.04-.38-.12-.48-.08-.1-.21-.16-.37-.17l-2.88-.4c-.9-.13-1.62-.42-2.16-.88-.54-.46-.82-1.23-.82-2.3v-2.02c0-1.09.35-1.92,1.06-2.51.7-.58,1.68-.87,2.92-.87h5.38c.24,0,.42.05.53.16.11.11.16.29.16.53v2.29c0,.24-.05.42-.16.53-.11.11-.28.16-.53.16h-4.47c-.17,0-.29.05-.38.16-.09.11-.13.25-.13.41s.04.31.13.42c.09.12.22.18.38.19l2.86.38c.9.13,1.62.42,2.17.88s.83,1.23.83,2.3v2.02c0,1.09-.35,1.92-1.07,2.5-.71.58-1.68.87-2.91.87Z" style="fill:#fff;"/><path d="m175.71,256.2h-2.88c-.24,0-.42-.05-.53-.16s-.16-.29-.16-.53v-12.44c0-.24.05-.42.16-.53.11-.11.28-.16.53-.16h2c.24,0,.45.04.62.12.17.08.34.21.51.4l3.72,4.26v-4.09c0-.24.05-.42.16-.53.11-.11.28-.16.53-.16h2.88c.24,0,.42.05.53.16.11.11.16.29.16.53v12.44c0,.24-.05.42-.16.53-.11.11-.29.16-.53.16h-2.88c-.24,0-.42-.05-.53-.16-.11-.11-.16-.29-.16-.53v-2.36l-3.28-3.97v6.34c0,.24-.05.42-.16.53s-.28.16-.53.16Z" style="fill:#fff;"/><path d="m198.3,252.57c0,.59-.09,1.12-.26,1.6-.17.48-.48.89-.92,1.23-.44.34-1.05.6-1.82.8s-1.76.29-2.95.29-2.18-.1-2.96-.29-1.39-.46-1.83-.8c-.44-.34-.75-.75-.92-1.23-.17-.48-.26-1.01-.26-1.6v-6.55c0-.59.09-1.12.26-1.6.17-.48.48-.89.92-1.24s1.05-.61,1.83-.81c.78-.19,1.77-.29,2.96-.29s2.17.1,2.95.29c.77.19,1.38.46,1.82.81s.75.76.92,1.24c.17.48.26,1.01.26,1.6v6.55Zm-7.56-.69c0,.26.1.47.29.64.19.17.63.26,1.33.26s1.13-.09,1.32-.26.29-.39.29-.64v-5.16c0-.24-.1-.45-.29-.62s-.63-.26-1.32-.26-1.13.09-1.33.26c-.19.17-.29.38-.29.62v5.16Z" style="fill:#fff;"/><path d="m207.17,256.2h-3.11c-.24,0-.42-.05-.53-.16s-.16-.29-.16-.53v-9.43h-2.82c-.24,0-.42-.05-.53-.16-.11-.11-.16-.29-.16-.53v-2.32c0-.24.05-.42.16-.53.11-.11.28-.16.53-.16h10.14c.24,0,.42.05.53.16.11.11.16.29.16.53v2.32c0,.24-.05.42-.16.53-.11.11-.29.16-.53.16h-2.82v9.43c0,.24-.05.42-.16.53s-.29.16-.53.16Z" style="fill:#fff;"/><path d="m223.7,256.2h-3.11c-.24,0-.42-.05-.53-.16-.11-.11-.16-.29-.16-.53v-9.43h-2.82c-.24,0-.42-.05-.53-.16s-.16-.29-.16-.53v-2.32c0-.24.05-.42.16-.53s.28-.16.53-.16h10.14c.24,0,.42.05.53.16.11.11.16.29.16.53v2.32c0,.24-.05.42-.16.53-.11.11-.29.16-.53.16h-2.82v9.43c0,.24-.05.42-.16.53-.11.11-.29.16-.53.16Z" style="fill:#fff;"/><path d="m233.44,256.2h-2.98c-.24,0-.42-.05-.53-.16-.11-.11-.16-.29-.16-.53v-12.44c0-.24.05-.42.16-.53s.28-.16.53-.16h2.98c.24,0,.42.05.53.16s.16.29.16.53v4.17h3.21v-4.17c0-.24.05-.42.16-.53.11-.11.29-.16.53-.16h2.98c.24,0,.42.05.53.16.11.11.16.29.16.53v12.44c0,.24-.05.42-.16.53-.11.11-.29.16-.53.16h-2.98c-.24,0-.42-.05-.53-.16s-.16-.29-.16-.53v-4.26h-3.21v4.26c0,.24-.05.42-.16.53-.11.11-.28.16-.53.16Z" style="fill:#fff;"/><path d="m253.95,256.2h-8.91c-.24,0-.42-.05-.53-.16-.11-.11-.16-.29-.16-.53v-12.44c0-.24.05-.42.16-.53s.28-.16.53-.16h8.91c.24,0,.42.05.53.16.11.11.16.29.16.53v2.25c0,.24-.05.42-.16.53s-.29.16-.53.16h-5.3v1.48h3.74c.24,0,.42.05.53.16.11.11.16.29.16.53v2.05c0,.24-.05.42-.16.53-.11.11-.29.16-.53.16h-3.74v1.65h5.3c.24,0,.42.05.53.16.11.11.16.29.16.53v2.25c0,.24-.05.42-.16.53-.11.11-.29.16-.53.16Z" style="fill:#fff;"/><path d="m264.89,256.2h-2.98c-.24,0-.42-.05-.53-.16-.11-.11-.16-.29-.16-.53v-12.44c0-.24.05-.42.16-.53s.28-.16.53-.16h5.88c1.74,0,2.93.35,3.57,1.04.64.69.96,1.59.96,2.71v2.46c0,1.11-.32,2.02-.96,2.71-.64.69-1.83,1.04-3.57,1.04h-2.21v3.19c0,.24-.05.42-.16.53-.11.11-.28.16-.53.16Zm.65-10.23v2.9h1.73c.37,0,.61-.1.73-.29.12-.19.17-.41.17-.65v-1.02c0-.24-.06-.46-.17-.65-.12-.19-.36-.29-.73-.29h-1.73Z" style="fill:#fff;"/><path d="m278.04,255.51c0,.24-.05.42-.16.53s-.29.16-.53.16h-2.82c-.24,0-.42-.05-.53-.16-.11-.11-.16-.29-.16-.53v-5.07c0-.38.06-.83.18-1.33.12-.5.31-1.08.57-1.75l1.67-4.36c.08-.22.2-.38.36-.48.16-.1.37-.15.62-.15h5.16c.24,0,.45.05.61.15.16.1.28.26.35.48l1.67,4.36c.26.67.44,1.25.57,1.75.12.5.18.94.18,1.33v5.07c0,.24-.05.42-.16.53-.11.11-.29.16-.53.16h-2.9c-.26,0-.44-.05-.57-.16s-.18-.29-.18-.53v-2.69h-3.4v2.69Zm1.09-9.1l-.9,2.92h3.01l-.9-2.92c-.05-.12-.11-.2-.16-.25-.06-.05-.12-.08-.2-.08h-.48c-.08,0-.14.03-.2.08-.06.05-.11.13-.16.25Z" style="fill:#fff;"/><path d="m298.7,256.2h-6.05c-1.6,0-2.79-.32-3.56-.96-.77-.64-1.16-1.62-1.16-2.96v-5.99c0-1.33.39-2.32,1.16-2.96.77-.64,1.96-.96,3.56-.96h4.8c.24,0,.42.05.53.16.11.11.16.29.16.53v2.32c0,.24-.05.42-.16.53-.11.11-.29.16-.53.16h-3.99c-.4,0-.69.08-.88.24-.19.16-.29.4-.29.72v4.59c0,.32.07.56.22.71.15.15.37.23.66.23h1.86v-3c0-.24.05-.42.16-.53s.28-.16.53-.16h2.98c.24,0,.42.05.53.16.11.11.16.29.16.53v5.93c0,.24-.05.42-.16.53-.11.11-.29.16-.53.16Z" style="fill:#fff;"/><path d="m311.33,256.2h-8.91c-.24,0-.42-.05-.53-.16-.11-.11-.16-.29-.16-.53v-12.44c0-.24.05-.42.16-.53s.28-.16.53-.16h8.91c.24,0,.42.05.53.16.11.11.16.29.16.53v2.25c0,.24-.05.42-.16.53s-.29.16-.53.16h-5.3v1.48h3.74c.24,0,.42.05.53.16.11.11.16.29.16.53v2.05c0,.24-.05.42-.16.53-.11.11-.29.16-.53.16h-3.74v1.65h5.3c.24,0,.42.05.53.16.11.11.16.29.16.53v2.25c0,.24-.05.42-.16.53-.11.11-.29.16-.53.16Z" style="fill:#fff;"/><path d="m85.16,279.24h-3.11c-.24,0-.42-.05-.53-.16-.11-.11-.16-.29-.16-.53v-2.46l-2.94-3.94c-.29-.4-.49-.74-.59-1.04-.1-.29-.14-.74-.14-1.33v-3.69c0-.24.05-.42.16-.53.11-.11.28-.16.53-.16h2.96c.24,0,.42.05.53.16.11.11.16.29.16.53v3.15c0,.13,0,.26.02.4.01.14.06.28.15.4l.88,1.38c.06.12.13.2.2.25.07.05.16.08.26.08h.19c.1,0,.19-.03.26-.08.07-.05.14-.13.2-.25l.88-1.38c.09-.13.14-.26.15-.4.01-.14.02-.27.02-.4v-3.15c0-.24.05-.42.16-.53.11-.11.28-.16.53-.16h2.86c.24,0,.42.05.53.16.11.11.16.29.16.53v3.69c0,.59-.05,1.03-.15,1.33-.1.29-.29.64-.58,1.04l-2.92,3.96v2.44c0,.24-.05.42-.16.53-.11.11-.29.16-.53.16Z" style="fill:#fff;"/><path d="m103.4,275.61c0,.59-.09,1.12-.26,1.6-.17.48-.48.89-.92,1.23-.44.34-1.05.6-1.82.8s-1.76.29-2.95.29-2.18-.1-2.96-.29-1.39-.46-1.83-.8c-.44-.34-.75-.75-.92-1.23-.17-.48-.26-1.01-.26-1.6v-6.55c0-.59.09-1.12.26-1.6.17-.48.48-.89.92-1.24s1.05-.61,1.83-.81c.78-.19,1.77-.29,2.96-.29s2.17.1,2.95.29c.77.19,1.38.46,1.82.81s.75.76.92,1.24c.17.48.26,1.01.26,1.6v6.55Zm-7.56-.69c0,.26.1.47.29.64.19.17.63.26,1.33.26s1.13-.09,1.32-.26.29-.39.29-.64v-5.16c0-.24-.1-.45-.29-.62s-.63-.26-1.32-.26-1.13.09-1.33.26c-.19.17-.29.38-.29.62v5.16Z" style="fill:#fff;"/><path d="m117.61,275.61c0,.59-.09,1.12-.26,1.6-.17.48-.48.89-.92,1.23-.44.34-1.05.6-1.81.8s-1.75.29-2.94.29-2.17-.1-2.94-.29-1.37-.46-1.81-.8c-.44-.34-.75-.75-.92-1.23-.17-.48-.26-1.01-.26-1.6v-9.5c0-.24.05-.42.16-.53.11-.11.28-.16.53-.16h3.01c.24,0,.42.05.53.16.11.11.16.29.16.53v8.75c0,.26.1.47.29.64s.62.26,1.29.26,1.11-.09,1.31-.26c.19-.17.29-.39.29-.64v-8.75c0-.24.05-.42.16-.53.11-.11.28-.16.53-.16h2.92c.24,0,.42.05.53.16.11.11.16.29.16.53v9.5Z" style="fill:#fff;"/><path d="m134.41,265.42h2.86c.24,0,.42.05.53.16.11.11.16.29.16.53v7.45c0,.41-.02.79-.05,1.14-.03.35-.13.77-.3,1.24l-.96,2.61c-.06.19-.16.36-.28.49-.12.13-.29.2-.49.2h-2.55c-.2,0-.39-.04-.56-.13-.17-.09-.28-.24-.33-.44l-.88-3.13c-.04-.13-.09-.21-.14-.26s-.12-.07-.2-.07h-.17c-.08,0-.14.02-.2.07s-.11.13-.14.26l-.9,3.13c-.05.19-.15.34-.29.43-.14.1-.31.14-.52.14h-2.53c-.2,0-.38-.06-.53-.19-.15-.13-.25-.29-.32-.5l-.96-2.65c-.17-.47-.27-.89-.3-1.24-.03-.35-.05-.73-.05-1.14v-7.41c0-.24.05-.42.16-.53s.28-.16.53-.16h2.96c.24,0,.42.05.53.16.11.11.16.29.16.53v7.07l1.11-2.42c.1-.22.24-.37.4-.46.17-.09.37-.13.61-.13h.81c.24,0,.45.05.61.13.17.09.3.24.4.46l1.11,2.42v-7.07c0-.24.05-.42.16-.53.11-.11.28-.16.53-.16Z" style="fill:#fff;"/><path d="m150.04,279.24h-8.91c-.24,0-.42-.05-.53-.16s-.16-.29-.16-.53v-12.44c0-.24.05-.42.16-.53.11-.11.28-.16.53-.16h8.91c.24,0,.42.05.53.16.11.11.16.29.16.53v2.25c0,.24-.05.42-.16.53-.11.11-.28.16-.53.16h-5.3v1.48h3.74c.24,0,.42.05.53.16.11.11.16.29.16.53v2.05c0,.24-.05.42-.16.53-.11.11-.29.16-.53.16h-3.74v1.65h5.3c.24,0,.42.05.53.16.11.11.16.29.16.53v2.25c0,.24-.05.42-.16.53s-.28.16-.53.16Z" style="fill:#fff;"/><path d="m156.64,279.24h-2.96c-.24,0-.42-.05-.53-.16s-.16-.29-.16-.53v-12.44c0-.24.05-.42.16-.53.11-.11.28-.16.53-.16h6.39c1.43,0,2.42.3,2.97.89.54.59.82,1.37.82,2.31v.88c0,.54-.08,1-.24,1.37-.16.38-.44.65-.84.82.69.08,1.25.36,1.68.84.43.49.64,1.13.64,1.94v4.07c0,.24-.05.42-.16.53-.11.11-.29.16-.53.16h-2.98c-.24,0-.42-.05-.53-.16s-.16-.29-.16-.53v-2.94c0-.28-.05-.49-.16-.62-.11-.13-.3-.2-.57-.2h-2.69v3.76c0,.24-.05.42-.16.53-.11.11-.29.16-.53.16Zm.69-10.37v2.46h1.44c.33,0,.56-.09.67-.26s.17-.39.17-.64v-.65c0-.26-.06-.47-.17-.64s-.34-.26-.67-.26h-1.44Z" style="fill:#fff;"/><path d="m176.86,279.24h-8.91c-.24,0-.42-.05-.53-.16s-.16-.29-.16-.53v-12.44c0-.24.05-.42.16-.53.11-.11.28-.16.53-.16h8.91c.24,0,.42.05.53.16.11.11.16.29.16.53v2.25c0,.24-.05.42-.16.53-.11.11-.28.16-.53.16h-5.3v1.48h3.74c.24,0,.42.05.53.16.11.11.16.29.16.53v2.05c0,.24-.05.42-.16.53-.11.11-.29.16-.53.16h-3.74v1.65h5.3c.24,0,.42.05.53.16.11.11.16.29.16.53v2.25c0,.24-.05.42-.16.53s-.28.16-.53.16Z" style="fill:#fff;"/><path d="m194.6,279.24h-9.77c-.24,0-.42-.05-.53-.16s-.16-.29-.16-.53v-12.44c0-.24.05-.42.16-.53.11-.11.28-.16.53-.16h2.98c.24,0,.42.05.53.16.11.11.16.29.16.53v9.5h2.63v-3.11c0-.24.05-.42.16-.53.11-.11.28-.16.53-.16h2.78c.24,0,.42.05.53.16.11.11.16.29.16.53v6.05c0,.24-.05.42-.16.53-.11.11-.29.16-.53.16Z" style="fill:#fff;"/><path d="m209.19,275.61c0,.59-.09,1.12-.26,1.6-.17.48-.48.89-.92,1.23-.44.34-1.05.6-1.82.8s-1.76.29-2.95.29-2.18-.1-2.96-.29c-.78-.19-1.39-.46-1.83-.8-.44-.34-.75-.75-.92-1.23-.17-.48-.26-1.01-.26-1.6v-6.55c0-.59.09-1.12.26-1.6.17-.48.48-.89.92-1.24s1.05-.61,1.83-.81c.78-.19,1.77-.29,2.96-.29s2.17.1,2.95.29c.77.19,1.38.46,1.82.81.44.35.75.76.92,1.24.17.48.26,1.01.26,1.6v6.55Zm-7.57-.69c0,.26.1.47.29.64.19.17.63.26,1.33.26s1.13-.09,1.32-.26c.19-.17.29-.39.29-.64v-5.16c0-.24-.1-.45-.29-.62-.19-.17-.63-.26-1.32-.26s-1.13.09-1.33.26c-.19.17-.29.38-.29.62v5.16Z" style="fill:#fff;"/><path d="m223.34,275.61c0,.59-.09,1.12-.26,1.6-.17.48-.48.89-.92,1.23-.44.34-1.05.6-1.82.8s-1.76.29-2.95.29-2.18-.1-2.96-.29c-.78-.19-1.39-.46-1.83-.8-.44-.34-.75-.75-.92-1.23-.17-.48-.26-1.01-.26-1.6v-6.55c0-.59.09-1.12.26-1.6.17-.48.48-.89.92-1.24.44-.35,1.05-.61,1.83-.81.78-.19,1.77-.29,2.96-.29s2.17.1,2.95.29c.77.19,1.38.46,1.82.81.44.35.75.76.92,1.24.17.48.26,1.01.26,1.6v6.55Zm-7.57-.69c0,.26.1.47.29.64.19.17.63.26,1.33.26s1.13-.09,1.32-.26c.19-.17.29-.39.29-.64v-5.16c0-.24-.1-.45-.29-.62-.19-.17-.63-.26-1.32-.26s-1.13.09-1.33.26c-.19.17-.29.38-.29.62v5.16Z" style="fill:#fff;"/><path d="m229.45,279.24h-2.98c-.24,0-.42-.05-.53-.16-.11-.11-.16-.29-.16-.53v-12.44c0-.24.05-.42.16-.53s.28-.16.53-.16h2.98c.24,0,.42.05.53.16s.16.29.16.53v4.42h.77l1.98-4.47c.09-.23.21-.39.37-.49.15-.1.35-.14.59-.14h2.96c.22,0,.36.05.44.16.08.11.07.27-.02.47l-1.96,4.47c.72.04,1.29.29,1.72.76.43.47.64,1.08.64,1.85v5.41c0,.24-.05.42-.16.53s-.29.16-.53.16h-2.96c-.24,0-.42-.05-.53-.16s-.16-.29-.16-.53v-3.74c0-.2-.05-.36-.15-.48-.1-.12-.26-.17-.46-.17h-2.53v4.4c0,.24-.05.42-.16.53-.11.11-.28.16-.53.16Z" style="fill:#fff;"/><path d="m240.49,279.24c-.24,0-.42-.05-.53-.16s-.16-.29-.16-.53v-2.28c0-.24.05-.42.16-.53s.29-.16.53-.16h1.9v-6.45h-1.9c-.24,0-.42-.05-.53-.16-.11-.11-.16-.29-.16-.53v-2.32c0-.24.05-.42.16-.53.11-.11.29-.16.53-.16h8.18c.24,0,.42.05.53.16.11.11.16.29.16.53v2.32c0,.24-.05.42-.16.53-.11.11-.29.16-.53.16h-1.86v6.45h1.86c.24,0,.42.05.53.16.11.11.16.29.16.53v2.28c0,.24-.05.42-.16.53-.11.11-.29.16-.53.16h-8.18Z" style="fill:#fff;"/><path d="m255.29,279.24h-2.88c-.24,0-.42-.05-.53-.16-.11-.11-.16-.29-.16-.53v-12.44c0-.24.05-.42.16-.53s.28-.16.53-.16h2c.24,0,.45.04.62.12.17.08.34.21.51.4l3.72,4.26v-4.09c0-.24.05-.42.16-.53.11-.11.29-.16.53-.16h2.88c.24,0,.42.05.53.16.11.11.16.29.16.53v12.44c0,.24-.05.42-.16.53-.11.11-.29.16-.53.16h-2.88c-.24,0-.42-.05-.53-.16-.11-.11-.16-.29-.16-.53v-2.36l-3.28-3.97v6.34c0,.24-.05.42-.16.53s-.29.16-.53.16Z" style="fill:#fff;"/><path d="m276.73,279.24h-6.05c-1.6,0-2.79-.32-3.56-.96-.77-.64-1.16-1.62-1.16-2.96v-5.99c0-1.33.39-2.32,1.16-2.96.77-.64,1.96-.96,3.56-.96h4.8c.24,0,.42.05.53.16.11.11.16.29.16.53v2.32c0,.24-.05.42-.16.53-.11.11-.29.16-.53.16h-3.99c-.4,0-.69.08-.88.24-.19.16-.29.4-.29.72v4.59c0,.32.07.56.22.71.15.15.37.23.66.23h1.86v-3c0-.24.05-.42.16-.53s.28-.16.53-.16h2.98c.24,0,.42.05.53.16.11.11.16.29.16.53v5.93c0,.24-.05.42-.16.53-.11.11-.29.16-.53.16Z" style="fill:#fff;"/><path d="m287.75,279.24h-2.98c-.24,0-.42-.05-.53-.16-.11-.11-.16-.29-.16-.53v-12.44c0-.24.05-.42.16-.53s.28-.16.53-.16h8.56c.24,0,.42.05.53.16.11.11.16.29.16.53v2.29c0,.24-.05.42-.16.53s-.29.16-.53.16h-4.9v2h3.34c.24,0,.42.05.53.16.11.11.16.29.16.53v2.3c0,.24-.05.42-.16.53s-.29.16-.53.16h-3.34v3.78c0,.24-.05.42-.16.53-.11.11-.28.16-.53.16Z" style="fill:#fff;"/><path d="m307.57,275.61c0,.59-.09,1.12-.26,1.6-.17.48-.48.89-.92,1.23-.44.34-1.05.6-1.82.8s-1.76.29-2.95.29-2.18-.1-2.96-.29c-.78-.19-1.39-.46-1.83-.8-.44-.34-.75-.75-.92-1.23-.17-.48-.26-1.01-.26-1.6v-6.55c0-.59.09-1.12.26-1.6.17-.48.48-.89.92-1.24.44-.35,1.05-.61,1.83-.81.78-.19,1.77-.29,2.96-.29s2.17.1,2.95.29c.77.19,1.38.46,1.82.81.44.35.75.76.92,1.24.17.48.26,1.01.26,1.6v6.55Zm-7.57-.69c0,.26.1.47.29.64.19.17.63.26,1.33.26s1.13-.09,1.32-.26c.19-.17.29-.39.29-.64v-5.16c0-.24-.1-.45-.29-.62-.19-.17-.63-.26-1.32-.26s-1.13.09-1.33.26c-.19.17-.29.38-.29.62v5.16Z" style="fill:#fff;"/><path d="m313.66,279.24h-2.96c-.24,0-.42-.05-.53-.16-.11-.11-.16-.29-.16-.53v-12.44c0-.24.05-.42.16-.53s.28-.16.53-.16h6.39c1.43,0,2.42.3,2.97.89.54.59.82,1.37.82,2.31v.88c0,.54-.08,1-.24,1.37s-.44.65-.83.82c.69.08,1.25.36,1.68.84.43.49.64,1.13.64,1.94v4.07c0,.24-.05.42-.16.53-.11.11-.28.16-.53.16h-2.98c-.24,0-.42-.05-.53-.16-.11-.11-.16-.29-.16-.53v-2.94c0-.28-.05-.49-.16-.62-.11-.13-.3-.2-.57-.2h-2.69v3.76c0,.24-.05.42-.16.53-.11.11-.29.16-.53.16Zm.69-10.37v2.46h1.44c.33,0,.56-.09.67-.26s.17-.39.17-.64v-.65c0-.26-.06-.47-.17-.64s-.34-.26-.67-.26h-1.44Z" style="fill:#fff;"/></svg>